#N canvas 10 10 200 200 10;
#N canvas 20 20 420 300 META 0;
#X text 10 10 META this is a prototype of a libdir meta file;
#X text 10 30 NAME pd-wavelet;
#X text 10 50 AUTHOR Raul Diaz Poblete;
#X text 10 70 DESCRIPTION manipulation of audio in the wavelet domain;
#X text 10 90 LICENSE GNU GPL v2;
#X text 10 110 VERSION ;
#X restore 10 10 pd META;
