#N canvas 10 10 200 200 10;
#N canvas 20 20 420 300 META 0;
#X text 10 10 META this is a prototype of a libdir meta file;
#X text 10 30 NAME sfruit;
#X text 10 50 AUTHOR Luke Iannini;
#X text 10 70 LICENSE GNU GPL;
#X text 10 90 DESCRIPTION a large collection of assorted handy utilites;
#X restore 10 10 pd META;
